<?xml version="1.0" encoding="UTF-8"?>
<svg version="1.1" xmlns="http://www.w3.org/2000/svg" width="512" height="512">
<path d="M0 0 C1.19187931 -0.00453111 2.38375862 -0.00906223 3.61175549 -0.01373065 C6.91208638 -0.02419044 10.21219911 -0.0257023 13.51253104 -0.02334189 C17.0749999 -0.02293329 20.63743641 -0.03397701 24.19989014 -0.04345703 C31.17615265 -0.06005786 38.15238136 -0.06556614 45.12866198 -0.06668179 C50.79969886 -0.06763261 56.4707246 -0.0717446 62.14175797 -0.07808304 C78.22434772 -0.09569223 94.3069108 -0.10492231 110.38951026 -0.10342209 C111.25621876 -0.10334218 112.12292726 -0.10326227 113.01589966 -0.10317993 C114.31755169 -0.10305729 114.31755169 -0.10305729 115.64549972 -0.10293217 C129.71092133 -0.10211915 143.77623587 -0.12126158 157.84162651 -0.14945666 C172.28794126 -0.17818661 186.73420379 -0.19199693 201.18054783 -0.19026911 C209.28947734 -0.18960529 217.39829458 -0.19509412 225.50719833 -0.21662521 C232.41068337 -0.23483839 239.31400523 -0.23918322 246.21750389 -0.22560637 C249.73856424 -0.21907759 253.25931156 -0.21895586 256.7803421 -0.23631287 C260.60028825 -0.2549495 264.41977767 -0.24248676 268.23974609 -0.22705078 C269.34850755 -0.23733791 270.457269 -0.24762503 271.59962928 -0.25822389 C279.59831408 -0.18675499 284.86496565 1.42356262 290.99685669 6.57992554 C295.96147581 12.50988726 298.35200139 17.90234373 298.4079895 25.6434021 C298.41759705 26.7184198 298.42720459 27.7934375 298.43710327 28.90103149 C298.44347809 30.63700592 298.44347809 30.63700592 298.44998169 32.40805054 C298.45568176 33.60419983 298.46138184 34.80034912 298.46725464 36.03274536 C298.47670038 38.56457638 298.48323693 41.09641967 298.48709106 43.62826538 C298.4967845 47.48867431 298.52780795 51.34854806 298.55935669 55.20883179 C298.56588825 57.67106822 298.57113812 60.13330845 298.57498169 62.59555054 C298.58732849 63.7447699 298.59967529 64.89398926 298.61239624 66.07803345 C298.58739683 75.13805283 297.03261094 81.99390591 291.24685669 89.26742554 C289.27064122 90.63576402 287.27282948 91.97389857 285.24685669 93.26742554 C286.26521606 93.28200806 287.28357544 93.29659058 288.33279419 93.31161499 C292.14254341 93.36996982 295.95172435 93.44719732 299.76101685 93.52987671 C301.40382606 93.56295232 303.04674416 93.59103731 304.68972778 93.61386108 C307.06340569 93.64772959 309.4361011 93.70005629 311.80935669 93.75570679 C312.53364868 93.76209671 313.25794067 93.76848663 314.00418091 93.77507019 C320.86054004 93.96891619 327.18011049 95.78388414 332.49685669 100.32992554 C333.12076294 100.8365271 333.74466919 101.34312866 334.38748169 101.86508179 C340.9778728 110.37997786 340.89537347 120.11665967 340.99685669 130.39242554 C341.02507617 131.84037692 341.05501174 133.28829592 341.08670044 134.73617554 C341.15984913 138.24644046 341.20985332 141.7565715 341.24685669 145.26742554 C342.44697388 145.4749646 343.64709106 145.68250366 344.88357544 145.89633179 C379.78003299 152.22441151 409.20027375 167.39128228 434.8767395 191.96029663 C435.99680922 193.02887348 437.13152924 194.08207575 438.27029419 195.13070679 C447.64413501 203.99844822 454.85911315 215.15326691 461.24685669 226.26742554 C461.58459106 226.85249878 461.92232544 227.43757202 462.27029419 228.04037476 C469.34994606 240.41978481 474.27510959 253.13735873 477.99685669 266.89242554 C478.19561401 267.61913452 478.39437134 268.34584351 478.59915161 269.09457397 C481.88556592 281.85707448 482.65769269 294.59881763 482.62185669 307.70492554 C482.62054245 308.88588303 482.62054245 308.88588303 482.61920166 310.09069824 C482.45560508 354.85559086 464.62804243 394.69289592 433.43435669 426.51742554 C401.87051072 457.76013411 359.14511287 472.74025687 315.23416138 472.56625366 C307.24123074 472.44247441 299.34447145 471.89958431 291.42434692 470.80380249 C286.89324832 470.21487208 284.40196764 470.60488411 280.24685669 472.26742554 C277.76390767 472.5204252 277.76390767 472.5204252 275.09648514 472.52469444 C274.07492868 472.53114334 273.05337222 472.53759223 272.0008595 472.54423654 C270.88540588 472.54113934 269.76995226 472.53804213 268.62069702 472.53485107 C266.83521804 472.54164774 266.83521804 472.54164774 265.01366878 472.54858172 C261.71300927 472.55905301 258.41256765 472.56055139 255.11190701 472.55819297 C251.55076474 472.55778477 247.98965496 472.56882429 244.42852783 472.57830811 C237.45246111 472.59491906 230.47642819 472.60041771 223.50034335 472.60153286 C217.8288144 472.60248339 212.1572966 472.60659391 206.48577118 472.61293411 C190.40233894 472.63054756 174.31893338 472.63977294 158.23549142 472.63827316 C157.36848024 472.63819325 156.50146906 472.63811334 155.60818481 472.63803101 C154.7401136 472.63794924 153.87204239 472.63786748 152.97766599 472.63778324 C138.91285634 472.63697054 124.84815384 472.65610403 110.78337517 472.68430774 C96.33821727 472.71304536 81.89311159 472.72684752 67.44792438 472.72512019 C59.33950702 472.72445654 51.23120195 472.7299376 43.12281036 472.75147629 C36.21823176 472.76969976 29.31381632 472.77402598 22.40922406 472.76045744 C18.88804677 472.75393331 15.36718241 472.75379001 11.846035 472.77116394 C8.02419595 472.7898271 4.20281231 472.77732535 0.38095093 472.76190186 C-1.27884517 472.77733254 -1.27884517 472.77733254 -2.9721725 472.79307497 C-10.7207543 472.7240157 -17.05211926 471.37529715 -23.09298706 466.30258179 C-23.62021362 465.65160522 -24.14744019 465.00062866 -24.69064331 464.32992554 C-25.23591675 463.6815271 -25.78119019 463.03312866 -26.34298706 462.36508179 C-29.22945748 458.07135709 -30.00632512 454.36304139 -30.04367065 449.22714233 C-30.05643036 448.03207565 -30.06919006 446.83700897 -30.08233643 445.60572815 C-30.08456207 444.32233047 -30.08678772 443.0389328 -30.08908081 441.71664429 C-30.09551522 440.37531901 -30.10224405 439.03399512 -30.10925293 437.69267273 C-30.1212061 434.88430532 -30.12493588 432.07606072 -30.12374878 429.26766968 C-30.12354589 425.6866692 -30.15082433 422.10646501 -30.1852932 418.52565289 C-30.20764374 415.75535031 -30.21158383 412.98523676 -30.21052933 410.21485329 C-30.21400643 408.25849646 -30.23562001 406.30219863 -30.25762939 404.34596252 C-30.21621457 396.238858 -29.44258866 390.64487935 -24.07736206 384.27914429 C-16.74185705 378.34421303 -10.05560075 376.75525784 -0.75314331 376.26742554 C-1.64001831 375.73117554 -2.52689331 375.19492554 -3.44064331 374.64242554 C-10.50020594 369.84725092 -13.00093063 364.4176474 -14.75314331 356.26742554 C-15.14927856 352.24915505 -15.17475274 348.26777865 -15.15158081 344.23226929 C-15.15445099 343.11356949 -15.15732117 341.99486969 -15.16027832 340.8422699 C-15.16230812 338.49171437 -15.15685473 336.14114154 -15.14425659 333.7906189 C-15.12817302 330.21153725 -15.14415108 326.63358214 -15.16329956 323.05453491 C-15.16131723 320.75961057 -15.15747378 318.46468692 -15.15158081 316.16976929 C-15.16068985 314.58034767 -15.16068985 314.58034767 -15.16998291 312.95881653 C-15.08401631 303.79421797 -13.39261695 295.04741713 -6.75314331 288.26742554 C-5.11336013 287.22392715 -3.45005366 286.21519821 -1.75314331 285.26742554 C-2.74314331 285.12047241 -3.73314331 284.97351929 -4.75314331 284.82211304 C-12.54862132 283.54984523 -19.24738505 282.33461985 -24.75314331 276.26742554 C-30.02116261 268.61936336 -30.46695944 261.48436128 -30.34689331 252.41195679 C-30.34693359 251.11094528 -30.34697388 249.80993378 -30.34701538 248.46949768 C-30.34537347 245.7335881 -30.32688165 242.99850921 -30.2951355 240.26278687 C-30.25534166 236.77266306 -30.25111084 233.28361708 -30.25859833 229.79330921 C-30.26241939 226.43689584 -30.24157817 223.0808171 -30.22189331 219.72445679 C-30.22169189 218.47952957 -30.22149048 217.23460236 -30.22128296 215.95195007 C-30.102894 207.25841661 -29.15198977 200.66627199 -22.75314331 194.26742554 C-15.35787373 189.27138463 -9.04958914 188.19972602 -0.16720581 187.95101929 C0.53457794 187.93023819 1.23636169 187.90945709 1.95941162 187.88804626 C4.18013627 187.8231623 6.40096945 187.76395324 8.62185669 187.70492554 C10.1361904 187.661682 11.65051352 187.61806594 13.16482544 187.57406616 C16.85872324 187.46754467 20.55274022 187.36610877 24.24685669 187.26742554 C23.45021606 186.64867554 23.45021606 186.64867554 22.63748169 186.01742554 C21.93107544 185.43992554 21.22466919 184.86242554 20.49685669 184.26742554 C19.80076294 183.71055054 19.10466919 183.15367554 18.38748169 182.57992554 C11.69807989 175.35341848 11.64306932 167.99109282 11.68045044 158.45883179 C11.67520405 157.12418691 11.66892389 155.78954574 11.66166687 154.45491028 C11.65130616 151.66852268 11.65576032 148.88264714 11.67044067 146.09628296 C11.68761843 142.54770401 11.66412637 139.000746 11.62895107 135.45234776 C11.60685626 132.69909698 11.60844734 129.94622689 11.61671638 127.19291496 C11.6179211 125.25600317 11.59810944 123.31911437 11.57777405 121.38230896 C11.65697251 113.8324264 12.51661668 108.30827058 17.24685669 102.26742554 C19.48513794 100.07601929 19.48513794 100.07601929 21.55935669 98.70492554 C22.2567395 98.22926147 22.95412231 97.75359741 23.67263794 97.26351929 C24.19213013 96.93480835 24.71162231 96.60609741 25.24685669 96.26742554 C24.17838501 96.26331665 23.10991333 96.25920776 22.00906372 96.25497437 C18.00159064 96.23301475 13.99507615 96.17855466 9.98806763 96.11483765 C8.26192491 96.09180308 6.53564456 96.07729644 4.80935669 96.0718689 C-15.69655468 95.99473439 -15.69655468 95.99473439 -23.67062378 88.45419312 C-28.25622089 83.56652104 -29.99478547 78.95001815 -30.04367065 72.22714233 C-30.05643036 71.03207565 -30.06919006 69.83700897 -30.08233643 68.60572815 C-30.08456207 67.32233047 -30.08678772 66.0389328 -30.08908081 64.71664429 C-30.09551522 63.37531901 -30.10224405 62.03399512 -30.10925293 60.69267273 C-30.1212061 57.88430532 -30.12493588 55.07606072 -30.12374878 52.26766968 C-30.12354589 48.6866692 -30.15082433 45.10646501 -30.1852932 41.52565289 C-30.20764374 38.75535031 -30.21158383 35.98523676 -30.21052933 33.21485329 C-30.21400643 31.25849646 -30.23562001 29.30219863 -30.25762939 27.34596252 C-30.21527609 19.05514644 -29.37378091 13.4744012 -23.82345581 7.02523804 C-23.18150269 6.48640991 -22.53954956 5.94758179 -21.87814331 5.39242554 C-21.24134644 4.83812866 -20.60454956 4.28383179 -19.94845581 3.71273804 C-13.70772918 -0.3959254 -7.19804883 -0.02002638 0 0 Z " fill="#E8AA41" transform="translate(29.753143310546875,19.732574462890625)"/>
<path d="M0 0 C0.68465332 0.0319043 1.36930664 0.06380859 2.07470703 0.09667969 C29.86622399 1.71640944 56.02474835 16.07855831 74.57714844 36.37451172 C95.97485917 60.81959718 102.781823 90.09510654 101 122 C99.31693572 138.91509759 92.01694626 156.37074789 82 170 C81.39671875 170.82371094 80.7934375 171.64742187 80.171875 172.49609375 C62.53869437 195.46940428 37.4536938 210.83919707 8.75 215.3125 C6.15936241 215.58919637 3.59677515 215.82684072 1 216 C-0.1130249 216.07589355 -0.1130249 216.07589355 -1.24853516 216.15332031 C-29.85776381 217.79555974 -55.00743939 207.92141867 -77 190 C-77.59296875 189.54238281 -78.1859375 189.08476562 -78.796875 188.61328125 C-84.37711935 184.14652602 -88.64745399 178.63270661 -93 173 C-93.60972656 172.22914063 -94.21945312 171.45828125 -94.84765625 170.6640625 C-108.66583601 152.21883849 -114.17507204 130.29359876 -114.1875 107.625 C-114.19974609 106.45710938 -114.21199219 105.28921875 -114.22460938 104.0859375 C-114.23631092 97.12741585 -113.68355164 90.75161987 -112 84 C-111.66548828 82.53433594 -111.66548828 82.53433594 -111.32421875 81.0390625 C-106.96439079 64.50916264 -99.06010163 49.96784842 -88 37 C-87.236875 35.989375 -86.47375 34.97875 -85.6875 33.9375 C-71.83288202 18.79408035 -53.45767033 8.91677385 -33.87695312 3.52001953 C-32.16644682 3.04611495 -30.46537125 2.53849933 -28.765625 2.02734375 C-19.22076611 -0.57690074 -9.8048327 -0.47446066 0 0 Z " fill="#FED387" transform="translate(355,220)"/>
<path d="M0 0 C0.95417885 -0.00453111 1.9083577 -0.00906223 2.89145106 -0.01373065 C6.0910692 -0.02639821 9.29051763 -0.02475274 12.49015808 -0.02310181 C14.78330708 -0.02908559 17.07645406 -0.03589078 19.36959839 -0.04345703 C25.60105644 -0.0611397 31.83245958 -0.06581338 38.06394029 -0.0670886 C43.26523504 -0.06898708 48.46651698 -0.07634405 53.6678068 -0.08343279 C65.23828873 -0.09879243 76.8087393 -0.10476994 88.37922994 -0.10342209 C89.0732581 -0.10334218 89.76728626 -0.10326227 90.48234558 -0.10317993 C91.52466238 -0.10305729 91.52466238 -0.10305729 92.58803608 -0.10293217 C103.84706028 -0.10211944 115.10595065 -0.12125453 126.36493615 -0.14945666 C137.93195474 -0.1782012 149.4988908 -0.19163001 161.06594771 -0.19026911 C167.5574112 -0.18975908 174.04872325 -0.19546517 180.54015541 -0.21662521 C186.64609328 -0.2359849 192.75173489 -0.23614731 198.85768318 -0.22159195 C201.09739871 -0.21949994 203.33713266 -0.22422798 205.57681656 -0.23631287 C208.63725263 -0.25175542 211.69666594 -0.24246308 214.75708008 -0.22705078 C215.64084865 -0.23733791 216.52461722 -0.24762503 217.43516666 -0.25822389 C224.68920081 -0.17764067 229.77666832 1.91931541 235.3190155 6.57992554 C241.17775822 13.57786823 242.72169468 19.59071254 242.80729675 28.58383179 C242.8153685 29.39553329 242.82344025 30.2072348 242.83175659 31.04353333 C242.84557039 32.76242965 242.85630461 34.48135309 242.86418152 36.20028687 C242.87565544 37.94092976 242.89603392 39.68153875 242.92570496 41.42196655 C243.11675324 52.64044959 243.28988329 63.27329463 236.2565155 72.70492554 C228.99628785 79.62746818 221.8798855 80.41587143 212.26538086 80.42132568 C211.3248638 80.42570794 210.38434674 80.43009019 209.41532916 80.43460524 C206.26188466 80.44796626 203.10846809 80.45416603 199.95500183 80.46029663 C197.6946551 80.46819964 195.43430961 80.47646872 193.17396545 80.4850769 C185.74967144 80.51127127 178.32537185 80.52660077 170.90104675 80.54086304 C168.34402144 80.54622355 165.78699617 80.55160106 163.22997093 80.55699539 C152.59348513 80.57861923 141.95700219 80.59750693 131.32050037 80.60861778 C128.56276253 80.61154724 125.80502473 80.61450895 123.04728699 80.61752319 C122.36190559 80.61826924 121.67652419 80.61901529 120.97037365 80.61978395 C109.87110958 80.63243387 98.77200583 80.66565535 87.67281667 80.70732503 C76.26625308 80.74979624 64.85981103 80.77291134 53.45316142 80.77853835 C47.05324101 80.78219059 40.65359264 80.79419936 34.25374794 80.82664108 C28.23149246 80.85673198 22.2096735 80.86302953 16.18735886 80.85125732 C13.9807224 80.85103669 11.77406562 80.85933336 9.56749916 80.87691116 C-12.95598307 81.04652816 -12.95598307 81.04652816 -21.00784588 73.86003685 C-27.05024354 67.34258906 -27.89788404 60.50836674 -27.8997345 52.05648804 C-27.90734802 51.08891571 -27.91496155 50.12134338 -27.92280579 49.12445068 C-27.93357027 47.08554656 -27.93647481 45.04658746 -27.93196106 43.00765991 C-27.93098951 39.90840542 -27.97263798 36.81163529 -28.016922 33.71273804 C-28.02213047 31.72315982 -28.02481717 29.73357307 -28.0247345 27.74398804 C-28.04112976 26.82807892 -28.05752502 25.9121698 -28.07441711 24.96850586 C-27.99444413 17.42568593 -25.66657476 11.59493597 -20.3684845 6.14633179 C-19.7291095 5.71191772 -19.0897345 5.27750366 -18.4309845 4.82992554 C-17.7916095 4.3774646 -17.1522345 3.92500366 -16.4934845 3.45883179 C-10.90849254 0.23265272 -6.32133299 -0.02198688 0 0 Z " fill="#F3B649" transform="translate(85.43098449707031,19.732574462890625)"/>
<path d="M0 0 C0.81726563 0.66644531 1.63453125 1.33289063 2.4765625 2.01953125 C26.40471313 22.20633874 39.52106524 52.28956536 42.48291016 82.90771484 C45.4353599 118.11442086 34.55561816 148.83727685 12 176 C11.55914062 176.56460938 11.11828125 177.12921875 10.6640625 177.7109375 C-5.89831872 198.71959555 -35.94195338 212.98313766 -61.90039062 216.67480469 C-96.14534662 220.26761198 -130.24363908 213.12322186 -157.43359375 191.28125 C-182.64357198 170.49341699 -200.72856968 141.02752522 -204 108 C-206.00294859 70.09068964 -196.20668331 37.48701049 -170.8125 8.9375 C-126.53298059 -39.14857298 -49.25194199 -41.7330881 0 0 Z M-132 -1 C-132.91652344 -0.50628906 -133.83304688 -0.01257813 -134.77734375 0.49609375 C-141.02413834 4.04781517 -146.48443691 8.41813608 -152 13 C-153.010625 13.763125 -154.02125 14.52625 -155.0625 15.3125 C-159.57881607 19.44444875 -163.25512802 24.17108614 -167 29 C-167.61101562 29.77214844 -168.22203125 30.54429687 -168.8515625 31.33984375 C-176.48031093 41.52892556 -181.82639035 53.71428384 -185 66 C-185.37125 67.03125 -185.7425 68.0625 -186.125 69.125 C-188.50517969 76.9455904 -188.18302716 85.15416502 -188.1875 93.25 C-188.19974609 94.40113281 -188.21199219 95.55226563 -188.22460938 96.73828125 C-188.24270853 107.44091311 -186.88268191 117.54105517 -183.4375 127.6875 C-183.18137939 128.44297119 -182.92525879 129.19844238 -182.66137695 129.97680664 C-177.97903371 143.18971253 -171.34246042 154.56788358 -162 165 C-161.25169922 165.94359375 -161.25169922 165.94359375 -160.48828125 166.90625 C-148.92110098 181.48951452 -129.00104049 193.29244706 -111 198 C-109.73027344 198.350625 -108.46054687 198.70125 -107.15234375 199.0625 C-95.68216752 202.03967883 -84.80619839 202.66177114 -73 202 C-71.72640625 201.92910156 -70.4528125 201.85820312 -69.140625 201.78515625 C-40.6750383 199.0193951 -15.8295876 183.87868978 3 163 C5.5555059 159.78654669 7.81858491 156.47557068 10 153 C10.49757813 152.25878906 10.99515625 151.51757812 11.5078125 150.75390625 C26.27719299 127.82656953 31.02929855 99.00991462 25.875 72.3125 C25.30196207 70.19359229 24.674251 68.08890592 24 66 C23.80132324 65.34563965 23.60264648 64.6912793 23.39794922 64.01708984 C14.92118355 36.31362272 -3.40972026 12.94573515 -28.87207031 -1.02734375 C-43.07563403 -8.47692219 -57.97934613 -12.91958047 -74 -14 C-74.71462402 -14.05591309 -75.42924805 -14.11182617 -76.16552734 -14.16943359 C-95.6572542 -15.52772716 -114.95171134 -10.3669571 -132 -1 Z " fill="#E0A33F" transform="translate(429,234)"/>
<path d="M0 0 C1.68963569 0.00934228 3.37928505 0.01645169 5.06893921 0.0214386 C9.48494822 0.04039738 13.90011597 0.08939961 18.3157959 0.1449585 C22.8341128 0.19639328 27.35256756 0.21900401 31.87109375 0.24414062 C40.71390835 0.29753132 49.55610258 0.38270642 58.3984375 0.48828125 C58.93025635 1.49858398 59.4620752 2.50888672 60.01000977 3.54980469 C60.72399283 4.89915642 61.4381114 6.24843646 62.15234375 7.59765625 C62.67519958 8.59224854 62.67519958 8.59224854 63.20861816 9.60693359 C68.77945562 20.11065256 75.62883496 29.4932292 83.3984375 38.48828125 C84.24277344 39.46796875 85.08710938 40.44765625 85.95703125 41.45703125 C100.44055285 57.9268188 117.94912234 69.61189142 137.3984375 79.48828125 C137.3984375 79.81828125 137.3984375 80.14828125 137.3984375 80.48828125 C117.19677157 80.58178649 96.99514965 80.6522908 76.79331207 80.69552994 C67.41291564 80.71614164 58.03265379 80.74423561 48.65234375 80.79003906 C40.47499039 80.82994947 32.29773452 80.85572418 24.12028646 80.86463523 C19.79168216 80.86984287 15.46335672 80.88205358 11.13484192 80.91120148 C7.05709923 80.93843712 2.97974915 80.94670989 -1.09807587 80.94071198 C-2.59119046 80.94180858 -4.08431875 80.94971407 -5.57735443 80.96510315 C-14.73258537 81.05480595 -21.43622778 80.67540214 -28.80859375 74.69921875 C-29.33839844 74.09335937 -29.86820313 73.4875 -30.4140625 72.86328125 C-30.95675781 72.27289063 -31.49945313 71.6825 -32.05859375 71.07421875 C-37.38216865 62.15217676 -37.07006056 52.48316337 -36.99267578 42.42016602 C-36.97657258 39.92734241 -36.99259824 37.43613423 -37.01171875 34.94335938 C-37.03948726 14.83619554 -37.03948726 14.83619554 -29.4903717 7.16442871 C-20.77265779 -0.5717545 -10.97280594 -0.17938229 0 0 Z " fill="#F3B649" transform="translate(93.6015625,396.51171875)"/>
<path d="M0 0 C24.13659015 -0.16043524 24.13659015 -0.16043524 34.4453125 -0.1953125 C41.47245401 -0.21920013 48.49938653 -0.2474236 55.52636719 -0.30175781 C61.19331652 -0.34530047 66.86004164 -0.36915517 72.52714539 -0.37950897 C74.68645251 -0.38688517 76.84574773 -0.40128917 79.00495911 -0.42292023 C82.03547437 -0.45206559 85.06506968 -0.45595128 88.09570312 -0.45410156 C88.98331329 -0.46848267 89.87092346 -0.48286377 90.78543091 -0.49768066 C98.08951148 -0.44961534 103.16978541 1.62004682 108.75 6.3125 C114.60874272 13.31044269 116.15267918 19.323287 116.23828125 28.31640625 C116.246353 29.12810776 116.25442474 29.93980927 116.26274109 30.77610779 C116.27655489 32.49500411 116.28728911 34.21392755 116.29516602 35.93286133 C116.30663994 37.67350422 116.32701841 39.41411321 116.35668945 41.15454102 C116.54773773 52.37302405 116.72086779 63.0058691 109.6875 72.4375 C102.42504728 79.36216423 95.33004802 80.15325765 85.71166992 80.11352539 C84.78435059 80.11367142 83.85703125 80.11381744 82.90161133 80.1139679 C79.84453979 80.11327269 76.78752961 80.10549864 73.73046875 80.09765625 C71.60769179 80.09579068 69.48491439 80.09436743 67.36213684 80.09336853 C61.78084113 80.08955433 56.19957154 80.07973339 50.61828613 80.06866455 C43.9185261 80.0566262 37.21875732 80.05204297 30.51898956 80.04621124 C20.34597489 80.03652107 10.17301749 80.01735681 0 80 C0 53.6 0 27.2 0 0 Z " fill="#F3B74A" transform="translate(212,20)"/>
<path d="M0 0 C2.375 1.5 2.375 1.5 4 4 C4.60891847 6.70401084 4.81444126 9.21661895 5 12 C5.82242188 12.20753906 6.64484375 12.41507812 7.4921875 12.62890625 C19.78693694 16.02202994 29.57555323 22.01989452 36.28125 33.12109375 C39.11215111 38.79300633 40.28177721 44.66001284 40 51 C38.66928096 54.16837867 38.04542218 55.47728891 35 57 C31.48467158 57.38210092 29.71187501 57.57029392 26.8984375 55.31640625 C24.75725919 52.70381626 24.19823598 50.90487162 23.5 47.625 C21.60890906 40.10065933 18.78677585 36.08103796 12.1953125 32.078125 C9.57602584 30.79178493 6.76835692 29.92278564 4 29 C4 43.19 4 57.38 4 72 C6.31 72.33 8.62 72.66 11 73 C22.36286556 76.87246458 31.71798087 84.3630325 37.1875 95.125 C40.64765981 102.21074559 41.75121607 110.21581462 39.42138672 117.91113281 C36.49154893 125.36854919 32.388611 132.07283596 26 137 C25.41863281 137.45632813 24.83726562 137.91265625 24.23828125 138.3828125 C18.42516973 142.45320925 11.77940487 144.1501319 5 146 C4.9175 147.2375 4.835 148.475 4.75 149.75 C4.36714994 152.66793828 4.01775738 153.97268095 2.375 156.5 C-0.96966866 158.61242231 -3.11938517 158.55437355 -7 158 C-9.375 156.5625 -9.375 156.5625 -11 154 C-11.608193 151.00542259 -11.86965117 148.05016265 -12 145 C-13.0725 144.95875 -14.145 144.9175 -15.25 144.875 C-25.8558057 143.48592102 -34.36454913 137.05833949 -41 129 C-46.16001179 121.76716296 -48.28949185 113.8323259 -47 105 C-45.08989886 102.35973787 -43.30419728 101.47561316 -40.125 100.9375 C-36.51939923 100.63261464 -36.14886331 100.88026212 -33.125 103.3125 C-31.15915137 106.10231819 -30.58944178 108.5916755 -30.0625 111.9375 C-29.18299202 117.35298897 -27.14474352 120.45006022 -23 124 C-19.49255882 126.48475315 -16.20342769 127.94914308 -12 129 C-12 114.81 -12 100.62 -12 86 C-14.97 85.34 -17.94 84.68 -21 84 C-33.37927894 79.36428124 -40.47807319 71.32260254 -46.140625 59.6484375 C-48.37443202 52.7642504 -48.13092892 43.59539478 -45.25 36.9375 C-44.53539555 35.60539763 -43.78815176 34.2899508 -43 33 C-42.401875 31.96875 -41.80375 30.9375 -41.1875 29.875 C-34.97135634 21.70521119 -27.54480012 15.61522481 -17.2265625 13.40625 C-15.15991278 13.17155161 -13.07877919 13.06929264 -11 13 C-11.04640625 12.39671875 -11.0928125 11.7934375 -11.140625 11.171875 C-11.43248438 4.70927439 -11.43248438 4.70927439 -9.4375 1.4375 C-6.04481874 -0.56331202 -3.87285839 -0.55326548 0 0 Z " fill="#E0A340" transform="translate(352,249)"/>
<path d="M0 0 C0.94925858 -0.00274933 1.89851715 -0.00549866 2.87654114 -0.0083313 C3.90584747 -0.00114075 4.93515381 0.0060498 5.99565125 0.01345825 C7.6353463 0.01302017 7.6353463 0.01302017 9.3081665 0.01257324 C12.91721058 0.0139653 16.52604758 0.02952096 20.13505554 0.04519653 C22.6389759 0.0489271 25.14289773 0.05177386 27.64682007 0.05377197 C33.56115355 0.06062504 39.47542072 0.07638409 45.38972014 0.09647095 C52.78593853 0.12104409 60.18216615 0.13176624 67.57841492 0.14285278 C80.7679057 0.16429686 93.9573353 0.198044 107.14677429 0.24050903 C106.20204272 1.34489424 105.25699324 2.44900749 104.31181335 3.55300903 C103.78557373 4.16789185 103.25933411 4.78277466 102.71714783 5.41629028 C101.32456909 7.03397434 99.91646111 8.63826129 98.50614929 10.24050903 C81.10630652 30.24511868 68.41503524 53.37667375 62.14677429 79.24050903 C53.45354543 79.38010802 44.76070791 79.48643048 36.06659889 79.55138206 C32.02862822 79.58257083 27.99142962 79.62481049 23.9539032 79.69314575 C20.05050043 79.75879043 16.14783575 79.79430852 12.24392319 79.80977249 C10.76162993 79.82077889 9.27937281 79.84227099 7.79739761 79.87488937 C-1.32530903 80.0675231 -8.7214425 79.52779092 -15.85322571 73.24050903 C-19.62066066 68.49834333 -21.95160602 64.03474817 -22.03022766 57.89602661 C-22.0430629 57.0211409 -22.05589813 56.14625519 -22.06912231 55.24485779 C-22.07650925 54.30111801 -22.08389618 53.35737823 -22.09150696 52.38504028 C-22.0995787 51.40943649 -22.10765045 50.4338327 -22.1159668 49.42866516 C-22.12980102 47.36165134 -22.14052613 45.29461473 -22.14839172 43.22756958 C-22.16556551 40.08234696 -22.20945341 36.9381863 -22.25361633 33.79324341 C-22.26374714 31.78218341 -22.27226203 29.77111449 -22.27900696 27.76004028 C-22.29651505 26.82642166 -22.31402313 25.89280304 -22.33206177 24.93089294 C-22.30844555 17.74127905 -20.66542088 12.44965422 -15.88838196 6.99832153 C-15.2374054 6.45949341 -14.58642883 5.92066528 -13.91572571 5.36550903 C-13.26732727 4.81121216 -12.61892883 4.25691528 -11.95088196 3.68582153 C-8.11302146 1.04148562 -4.63971348 -0.01041462 0 0 Z " fill="#F3B649" transform="translate(79.85322570800781,208.75949096679688)"/>
<path d="M0 0 C0.76180069 -0.00043808 1.52360138 -0.00087616 2.30848694 -0.00132751 C4.80301386 0.00074688 7.29685162 0.02401306 9.79125977 0.04760742 C11.53003065 0.0532082 13.26880629 0.05747602 15.00758362 0.06047058 C19.56640882 0.07188147 24.12494367 0.10131601 28.68365479 0.13458252 C33.34253004 0.16536468 38.00145258 0.17899328 42.66040039 0.1940918 C51.78878261 0.22618957 60.91695009 0.27734013 70.04516602 0.34057617 C69.97533508 0.98862717 69.90550415 1.63667816 69.83355713 2.30436707 C67.28847041 26.66172593 68.94637665 50.42970026 76.05688477 73.84838867 C77.04516602 77.34057617 77.04516602 77.34057617 77.04516602 80.34057617 C66.1007813 80.4334144 55.15649086 80.50441135 44.21179199 80.54782486 C39.12925265 80.56866528 34.04698348 80.59691811 28.96459961 80.64233398 C24.05625771 80.68591822 19.14817508 80.70973993 14.23965454 80.72008514 C12.37061484 80.72745396 10.50158871 80.74184354 8.63265991 80.7634964 C6.00683355 80.79269793 3.38206713 80.79652524 0.75610352 80.79467773 C-0.00994705 80.80905884 -0.77599762 80.82343994 -1.56526184 80.83825684 C-8.34851571 80.78689527 -12.951765 78.15638533 -18.64233398 74.71557617 C-24.98378205 68.20273762 -26.7176457 60.66136186 -26.61889648 51.83666992 C-26.62368011 50.87334244 -26.62846375 49.91001495 -26.63339233 48.91749573 C-26.63677051 46.89647777 -26.62771534 44.87540359 -26.60668945 42.85449219 C-26.57986427 39.78154527 -26.60652384 36.71224041 -26.63842773 33.6394043 C-26.63512384 31.66348488 -26.62871803 29.6875677 -26.61889648 27.71166992 C-26.62901764 26.80517197 -26.63913879 25.89867401 -26.64956665 24.96470642 C-26.51941633 17.79708295 -24.40049332 12.15253345 -19.54776001 6.78392029 C-13.68278539 1.51658757 -7.67601406 -0.11757066 0 0 Z " fill="#F3B649" transform="translate(83.954833984375,302.659423828125)"/>
<path d="M0 0 C-1.62275148 4.07637122 -4.53715823 6.82612042 -7.59375 9.859375 C-8.14107788 10.40861633 -8.68840576 10.95785767 -9.25231934 11.52374268 C-10.4064778 12.67925859 -11.56315167 13.83226685 -12.72216797 14.98291016 C-14.50073946 16.750735 -16.26834763 18.5290213 -18.03515625 20.30859375 C-19.15821308 21.43032971 -20.28188976 22.55144551 -21.40625 23.671875 C-21.9364978 24.20617126 -22.46674561 24.74046753 -23.01306152 25.29095459 C-26.77006146 29 -26.77006146 29 -29 29 C-29.33 32.63 -29.66 36.26 -30 40 C-31.77375 40.37125 -33.5475 40.7425 -35.375 41.125 C-46.25786276 43.86814798 -55.54647525 49.94553721 -61.375 59.6875 C-63.032777 62.70475178 -63.032777 62.70475178 -63.39657593 65.02105713 C-64.16975562 67.55671737 -65.21495545 68.33321255 -67.27978516 69.97558594 C-70.96568069 73.06043912 -74.43146046 76.31208363 -77.83349609 79.70410156 C-78.36237238 80.2308334 -78.89124866 80.75756523 -79.4361515 81.30025864 C-81.13400255 82.9949714 -82.82885372 84.69264569 -84.5234375 86.390625 C-85.71775996 87.58427261 -86.91223073 88.77777184 -88.10684204 89.97113037 C-90.59450142 92.45732417 -93.08036487 94.9452958 -95.56494141 97.43457031 C-98.74919467 100.62455139 -101.93795888 103.80997967 -105.12805748 106.99411392 C-107.58850801 109.45095445 -110.04657631 111.91016722 -112.50392532 114.37010956 C-113.67936448 115.54621515 -114.85554517 116.72158012 -116.03248215 117.89618683 C-117.6717094 119.532877 -119.3077015 121.17273384 -120.94287109 122.81347656 C-121.87360443 123.74500549 -122.80433777 124.67653442 -123.76327515 125.6362915 C-126.11217787 127.98519945 -126.11217787 127.98519945 -128 131 C-129.71909695 122.39472543 -130.30935719 114.14007903 -130.25 105.375 C-130.25773438 104.22515625 -130.26546875 103.0753125 -130.2734375 101.890625 C-130.25776316 95.0095908 -129.65128527 88.67842759 -128 82 C-127.66548828 80.53433594 -127.66548828 80.53433594 -127.32421875 79.0390625 C-122.96439079 62.50916264 -115.06010163 47.96784842 -104 35 C-103.236875 33.989375 -102.47375 32.97875 -101.6875 31.9375 C-87.83288202 16.79408035 -69.45767033 6.91677385 -49.87695312 1.52001953 C-48.16644682 1.04611495 -46.46537125 0.53849933 -44.765625 0.02734375 C-30.14617597 -3.96146531 -14.78074172 -2.28336975 0 0 Z " fill="#F8C561" transform="translate(371,222)"/>
<path d="M0 0 C1.48236388 2.96472777 0.85928282 5.58081185 0.6875 8.875 C0.45791245 18.26547005 4.08652833 24.58817148 9.1875 32.3125 C17.00546874 39.78300346 24.57487104 42.52495701 35 46 C35 60.19 35 74.38 35 89 C27.49677307 87.74946218 24.13136025 84.87746618 18.6875 79.875 C16.42306644 76.01707616 15.68464168 72.10610326 14.80859375 67.7421875 C13.81749269 64.1487696 13.81749269 64.1487696 11 62 C5.18866209 62.15828395 5.18866209 62.15828395 0.39916992 65.13378906 C-0.37837646 66.08479492 -1.15592285 67.03580078 -1.95703125 68.015625 C-2.89508954 69.11748896 -3.83759372 70.21557806 -4.78369141 71.31054688 C-5.2927301 71.90504639 -5.8017688 72.4995459 -6.32623291 73.11206055 C-9.42712552 76.60973806 -12.75950986 79.8783663 -16.07421875 83.171875 C-16.77531769 83.87163452 -17.47641663 84.57139404 -18.19876099 85.2923584 C-20.35937924 87.44722304 -22.52336081 89.59867209 -24.6875 91.75 C-26.17927211 93.23674275 -27.67081013 94.72372043 -29.16210938 96.2109375 C-32.77205299 99.80999923 -36.38512717 103.40588945 -40 107 C-50.63491826 96.63968258 -59.31866417 78.84485455 -61.40026855 64.18014526 C-60.8442472 59.76253952 -58.47654632 57.67905747 -55.40039062 54.71923828 C-54.80542282 54.12339432 -54.21045502 53.52755035 -53.59745789 52.91365051 C-51.63094417 50.95131081 -49.6440505 49.01106651 -47.65625 47.0703125 C-46.28731105 45.71256619 -44.91969245 44.35348746 -43.55334473 42.99313354 C-39.95622357 39.41890458 -36.34144932 35.8630596 -32.72271729 32.31072998 C-29.0321899 28.68161511 -25.35862133 25.03542313 -21.68359375 21.390625 C-14.47223701 14.24358798 -7.24211802 7.11585528 0 0 Z " fill="#F9C662" transform="translate(305,289)"/>
<path d="M0 0 C10.89613038 0 21.772864 0.01983404 32.6640625 0.21875 C34.59020889 0.25204407 34.59020889 0.25204407 36.55526733 0.28601074 C39.89891032 0.34382385 43.2425179 0.40347068 46.58612061 0.46356201 C50.02614355 0.52504064 53.46619781 0.58471571 56.90625 0.64453125 C63.60420261 0.76112226 70.30209418 0.88062294 77 1 C77 17.17 77 33.34 77 50 C70.07 50.66 63.14 51.32 56 52 C51.90878282 52.52728048 47.87329392 53.06773708 43.8125 53.75 C42.81766602 53.91701416 41.82283203 54.08402832 40.79785156 54.25610352 C27.99574144 56.54688854 16.06159788 60.87279427 4.1875 66.1171875 C2 67 2 67 0 67 C0 44.89 0 22.78 0 0 Z " fill="#F3B74A" transform="translate(253,114)"/>
<path d="M0 0 C24.24324324 0 24.24324324 0 31.75 6.3125 C37.60874272 13.31044269 39.15267918 19.323287 39.23828125 28.31640625 C39.246353 29.12810776 39.25442474 29.93980927 39.26274109 30.77610779 C39.27655489 32.49500411 39.28728911 34.21392755 39.29516602 35.93286133 C39.30663994 37.67350422 39.32701841 39.41411321 39.35668945 41.15454102 C39.54773773 52.37302405 39.72086779 63.0058691 32.6875 72.4375 C22.9649429 81.70784514 13.7902035 80 0 80 C0 53.6 0 27.2 0 0 Z " fill="#F3B649" transform="translate(289,20)"/>
<path d="M0 0 C11.55 0 23.1 0 35 0 C35 26.4 35 52.8 35 80 C23.45 80 11.9 80 0 80 C0 53.6 0 27.2 0 0 Z " fill="#F8C561" transform="translate(254,20)"/>
<path d="M0 0 C1.87784855 3.7556971 0.77039474 8.49926617 0.546875 12.6171875 C0.94037005 18.47730621 0.94037005 18.47730621 6 29 C-13.14 48.14 -32.28 67.28 -52 87 C-55.09454253 83.90545747 -56.06508573 81.95212598 -57.625 77.9375 C-58.05039063 76.87402344 -58.47578125 75.81054688 -58.9140625 74.71484375 C-59.27242187 73.48894531 -59.63078125 72.26304687 -60 71 C-60.26085892 70.32454636 -60.52171783 69.64909271 -60.79048157 68.95317078 C-61.58686382 65.93967898 -61.64781029 64.07536744 -61 61 C-57.21037528 55.60922565 -52.50132658 51.22192367 -47.75390625 46.6796875 C-46.38245397 45.32876477 -45.01342015 43.97538279 -43.64671326 42.61965942 C-40.05203611 39.06687835 -36.42556525 35.54837039 -32.79138184 32.03607178 C-29.08522232 28.44266606 -25.41020805 24.81771235 -21.73242188 21.1953125 C-14.51836204 14.09904126 -7.27030886 7.03859938 0 0 Z " fill="#FED387" transform="translate(305,289)"/>
<path d="M0 0 C1.63671088 0.52288689 3.25786198 1.0981035 4.85546875 1.73046875 C5.52078613 1.95017334 6.18610352 2.16987793 6.87158203 2.39624023 C19.25679015 6.6099495 30.33935093 13.02016978 40.85546875 20.73046875 C30.18880208 31.39713542 19.52213542 42.06380208 8.85546875 52.73046875 C5.99023727 51.3410633 3.64489265 49.85985581 1.16796875 47.85546875 C-5.23534 42.97279733 -12.63873602 40.45984883 -20.14453125 37.73046875 C-20.24765625 36.47234375 -20.35078125 35.21421875 -20.45703125 33.91796875 C-20.78304258 31.42442265 -21.00883277 29.95187154 -22.33203125 27.79296875 C-24.85292569 26.31520305 -27.26699235 26.05019529 -30.14453125 25.73046875 C-25.2189314 19.89124958 -20.1462275 14.21606439 -14.89453125 8.66796875 C-14.09917969 7.77658203 -13.30382812 6.88519531 -12.484375 5.96679688 C-5.74359962 -1.06255774 -5.74359962 -1.06255774 0 0 Z " fill="#F8C662" transform="translate(376.14453125,223.26953125)"/>
<path d="M0 0 C10.75303632 4.93956227 17.47608528 21.05281962 23 31 C23.61101562 32.07507813 24.22203125 33.15015625 24.8515625 34.2578125 C26.1324659 37.31629612 26.10465071 37.99285372 25 41 C23.79225159 42.58197021 23.79225159 42.58197021 22.25610352 44.11621094 C21.39499718 44.98666046 21.39499718 44.98666046 20.51649475 45.87469482 C19.89359055 46.48838928 19.27068634 47.10208374 18.62890625 47.734375 C17.67261574 48.69141327 17.67261574 48.69141327 16.69700623 49.66778564 C15.34969116 51.01276246 13.99868722 52.35405267 12.64428711 53.69189453 C10.56510177 55.74742783 8.49961391 57.81601643 6.43554688 59.88671875 C5.12579144 61.19089948 3.81527044 62.49431191 2.50390625 63.796875 C1.88302628 64.41866638 1.2621463 65.04045776 0.62245178 65.68109131 C-3.76897504 70 -3.76897504 70 -6 70 C-6.32871094 69.030625 -6.65742188 68.06125 -6.99609375 67.0625 C-11.44858986 54.35753265 -17.1038394 41.76602311 -26.1015625 31.578125 C-27 30 -27 30 -26.7124176 28.07891846 C-25.52919444 24.62613392 -22.77770167 22.41431781 -20.21484375 19.921875 C-19.63916153 19.35043762 -19.06347931 18.77900024 -18.47035217 18.19024658 C-16.63299681 16.36966198 -14.78547868 14.55979432 -12.9375 12.75 C-11.68876862 11.51631747 -10.44071331 10.28195022 -9.19335938 9.046875 C-6.1366898 6.02325345 -3.07086474 3.00920079 0 0 Z " fill="#F8C561" transform="translate(472,222)"/>
<path d="M0 0 C3.63 2.31 7.26 4.62 11 7 C21.30652152 13.27222585 31.57183461 18.12475775 43 22 C37.8412014 28.2335483 32.2876171 34.06591858 26.62304688 39.83691406 C25.53383388 40.95299693 24.45185335 42.07618062 23.37695312 43.20605469 C21.80951626 44.85233838 20.22048816 46.474695 18.625 48.09375 C18.14981934 48.60192261 17.67463867 49.11009521 17.18505859 49.63366699 C15.7890625 51.02148438 15.7890625 51.02148438 13 53 C9.15021471 52.91254629 6.24183304 51.87507721 2.8984375 50.03125 C2.1664917 49.6293042 1.4345459 49.2273584 0.68041992 48.81323242 C-0.46076294 48.16318237 -0.46076294 48.16318237 -1.625 47.5 C-2.41608154 47.05438721 -3.20716309 46.60877441 -4.0222168 46.1496582 C-12.92524756 41.03753703 -20.71770365 35.28229635 -28 28 C-18.76 18.76 -9.52 9.52 0 0 Z " fill="#F8C561" transform="translate(270,424)"/>
<path d="M0 0 C11.22 0 22.44 0 34 0 C34 16.17 34 32.34 34 49 C22.67388421 50.07867769 11.34385325 51.1273959 0 52 C0 34.84 0 17.68 0 0 Z " fill="#F8C561" transform="translate(296,115)"/>
<path d="M0 0 C5.61 0 11.22 0 17 0 C17 26.4 17 52.8 17 80 C11.39 80 5.78 80 0 80 C0 53.6 0 27.2 0 0 Z " fill="#F8C561" transform="translate(212,20)"/>
<path d="M0 0 C5.94 0 11.88 0 18 0 C18 19.8 18 39.6 18 60 C2 67 2 67 0 67 C0 44.89 0 22.78 0 0 Z " fill="#F8C460" transform="translate(253,114)"/>
<path d="M0 0 C1.65229499 0.52706404 3.28751498 1.11140812 4.8984375 1.75390625 C5.62224609 2.00551514 6.34605469 2.25712402 7.09179688 2.51635742 C9.10116369 3.24183009 11.05868226 4.04087799 13.0234375 4.87890625 C13.69375 5.15605469 14.3640625 5.43320313 15.0546875 5.71875 C16.67264553 6.3890469 18.28607308 7.07026374 19.8984375 7.75390625 C17.34484908 14.25512881 11.0738316 19.18893805 6.27905273 24.07348633 C4.98523218 25.40046927 3.70224153 26.73809962 2.43041992 28.08618164 C0.58824355 30.03808236 -1.2849055 31.95479975 -3.16796875 33.8671875 C-3.72770889 34.47226639 -4.28744904 35.07734528 -4.864151 35.70075989 C-7.34896086 38.15997809 -8.92933151 39.66943121 -12.50143433 39.92684937 C-18.5192611 39.33620765 -18.5192611 39.33620765 -20.1015625 37.75390625 C-20.2253125 36.47515625 -20.3490625 35.19640625 -20.4765625 33.87890625 C-20.77523894 31.38696404 -20.96705326 29.97336869 -22.2890625 27.81640625 C-24.80995694 26.33864055 -27.2240236 26.07363279 -30.1015625 25.75390625 C-25.17596265 19.91468708 -20.10325875 14.23950189 -14.8515625 8.69140625 C-14.05621094 7.80001953 -13.26085937 6.90863281 -12.44140625 5.99023438 C-5.70035669 -1.03940616 -5.70035669 -1.03940616 0 0 Z " fill="#FED387" transform="translate(376.1015625,223.24609375)"/>
<path d="M0 0 C3.33669389 0.67120181 6.10730148 1.77826011 9.13671875 3.29296875 C9.13671875 17.48296875 9.13671875 31.67296875 9.13671875 46.29296875 C1.63349182 45.04243093 -1.731921 42.17043493 -7.17578125 37.16796875 C-9.44021481 33.31004491 -10.17863957 29.39907201 -11.0546875 25.03515625 C-11.89440168 22.18742991 -12.51087427 21.0456284 -14.86328125 19.29296875 C-17.46939202 18.57099713 -17.46939202 18.57099713 -19.86328125 18.29296875 C-17.90607419 15.91258178 -15.90210188 13.60284646 -13.86328125 11.29296875 C-13.03957031 10.308125 -12.21585937 9.32328125 -11.3671875 8.30859375 C-4.493421 0.4597634 -4.493421 0.4597634 0 0 Z " fill="#FED387" transform="translate(330.86328125,331.70703125)"/>
<path d="M0 0 C0 13.86 0 27.72 0 42 C-6.79508847 40.86748525 -11.812233 38.6232543 -16.4296875 33.375 C-20.37163111 27.6203378 -20.94798444 21.78459451 -20 15 C-17.05526559 8.41368564 -11.15996289 4.3909129 -5 1 C-2 0 -2 0 0 0 Z " fill="#F7C360" transform="translate(341,277)"/>
<path d="M0 0 C8.3186059 1.66372118 14.20117774 5.9927232 19 13 C20.84152373 18.52457118 20.8169855 23.91005661 18.375 29.25 C14.73089319 35.67178263 8.70123784 39.29837483 2 42 C1.34 42 0.68 42 0 42 C0 28.14 0 14.28 0 0 Z " fill="#FED286" transform="translate(356,337)"/>
<path d="M0 0 C0.63242829 4.7989819 1.12649525 9.15211308 -1.46777344 13.40771484 C-3.49937627 15.65117471 -5.61407615 17.6758575 -7.875 19.6875 C-8.62136719 20.40099609 -9.36773437 21.11449219 -10.13671875 21.84960938 C-15.61795901 27 -15.61795901 27 -18 27 C-20.00912088 22.98175824 -19.60158444 18.35853823 -19 14 C-15.77381218 6.77186163 -8.01290386 0 0 0 Z " fill="#FED386" transform="translate(340,278)"/>
<path d="M0 0 C6.81002088 1.13500348 6.81002088 1.13500348 10.1875 3.3125 C10.84105469 3.72113281 11.49460937 4.12976563 12.16796875 4.55078125 C14.19750088 6.15623204 15.48623344 7.91380295 17 10 C14.3581833 12.67067203 11.7108958 15.33585333 9.0625 18 C8.30775391 18.763125 7.55300781 19.52625 6.77539062 20.3125 C6.05673828 21.034375 5.33808594 21.75625 4.59765625 22.5 C3.93258057 23.1703125 3.26750488 23.840625 2.58227539 24.53125 C1 26 1 26 0 26 C0 17.42 0 8.84 0 0 Z " fill="#F8C561" transform="translate(356,278)"/>
<path d="M0 0 C0 1.65 0 3.3 0 5 C-4.625 7.125 -4.625 7.125 -8 6 C-7.0479279 4.99403703 -6.08812654 3.99538437 -5.125 3 C-4.59132813 2.443125 -4.05765625 1.88625 -3.5078125 1.3125 C-2 0 -2 0 0 0 Z " fill="#FDD182" transform="translate(340,256)"/>
</svg>
